:FULLY-SPECIFIED
:FORCE-ALL-JOINTS-BE-3DOF
:DEGREES
110
root 0.683213 17.6227 22.3532 1.3647 -0.39251 1.36037
lfemur 3.22605 6.15697 -19.0979
ltibia 64.8424 0 0
lfoot 11.6079 -4.57494 0
ltoes -18.2583 0 0
rfemur -30.0344 -1.58352 23.5191
rtibia 69.1377 0 0
rfoot -0.406597 -7.00235 0
rtoes 8.92208 0 0
lowerback 17.5968 -2.60892 -1.29215
upperback 1.4153 -3.68196 -0.0752613
thorax -8.14959 -1.72628 1.50851
lowerneck -6.19925 1.97926 -0.74033
upperneck -8.33617 2.58592 -1.38552
head -1.51888 1.32228 -0.293516
lclavicle -1.18213e-14 1.50563e-14 0
lhumerus -29.6543 -16.5144 89.9015
lradius 110.308 0 0
lwrist 28.7128 0 0
lhand -38.1039 7.65159 0
lfingers 7.12502 0 0
lthumb -11.1395 37.3358 0
rclavicle -1.18213e-14 1.50563e-14 0
rhumerus -47.2207 8.56539 -84.156
rradius 86.0809 0 0
rwrist -3.05325 0 0
rhand -44.0901 36.941 0
rfingers 7.12502 0 0
rthumb -16.9079 7.65711 0
111
root 0.688262 17.6079 22.9009 1.27848 -0.81135 1.15784
lfemur 2.87926 6.61709 -18.6182
ltibia 67.246 0 0
lfoot 12.5331 -4.45032 0
ltoes -17.4215 0 0
rfemur -29.2767 -1.13352 23.891
rtibia 67.1179 0 0
rfoot -1.17209 -7.00082 0
rtoes 8.75722 0 0
lowerback 17.628 -2.54212 -0.996768
upperback 1.43504 -3.52617 0.0460261
thorax -8.16066 -1.65966 1.43685
lowerneck -6.23188 2.0521 -0.676822
upperneck -8.35534 2.66951 -1.58689
head -1.51583 1.36462 -0.366066
lclavicle -1.25042e-14 1.45562e-14 0
lhumerus -30.8261 -16.6309 90.2008
lradius 109.974 0 0
lwrist 28.6689 0 0
lhand -38.0897 7.71143 0
lfingers 7.12502 0 0
lthumb -11.1258 37.3964 0
rclavicle -1.25042e-14 1.45562e-14 0
rhumerus -46.4564 8.85196 -84.2308
rradius 86.5027 0 0
rwrist -3.05738 0 0
rhand -44.0787 37.0459 0
rfingers 7.12502 0 0
rthumb -16.8969 7.76109 0
112
root 0.693311 17.593 23.4486 1.19226 -1.23019 0.955311
lfemur 2.53247 7.0772 -18.1385
ltibia 69.6497 0 0
lfoot 13.4583 -4.32571 0
ltoes -16.5847 0 0
rfemur -28.5189 -0.683524 24.2629
rtibia 65.0981 0 0
rfoot -1.93758 -6.9993 0
rtoes 8.59236 0 0
lowerback 17.6593 -2.47532 -0.701383
upperback 1.45478 -3.37038 0.167314
thorax -8.17173 -1.59303 1.36518
lowerneck -6.2645 2.12493 -0.613315
upperneck -8.37451 2.75309 -1.78827
head -1.51278 1.40696 -0.438615
lclavicle -1.31871e-14 1.4056e-14 0
lhumerus -31.9979 -16.7474 90.5002
lradius 109.64 0 0
lwrist 28.625 0 0
lhand -38.0755 7.77127 0
lfingers 7.12502 0 0
lthumb -11.112 37.457 0
rclavicle -1.31871e-14 1.4056e-14 0
rhumerus -45.6921 9.13853 -84.3056
rradius 86.9245 0 0
rwrist -3.06151 0 0
rhand -44.0673 37.1508 0
rfingers 7.12502 0 0
rthumb -16.8859 7.86507 0
113
root 0.69836 17.5781 23.9962 1.10605 -1.64903 0.752779
lfemur 2.18568 7.53732 -17.6589
ltibia 72.0533 0 0
lfoot 14.3836 -4.20109 0
ltoes -15.7478 0 0
rfemur -27.7612 -0.233524 24.6347
rtibia 63.0782 0 0
rfoot -2.70308 -6.99777 0
rtoes 8.4275 0 0
lowerback 17.6905 -2.40853 -0.405998
upperback 1.47452 -3.21459 0.288601
thorax -8.18281 -1.52641 1.29351
lowerneck -6.29713 2.19777 -0.549807
upperneck -8.39368 2.83668 -1.98964
head -1.50973 1.4493 -0.511165
lclavicle -1.387e-14 1.35558e-14 0
lhumerus -33.1697 -16.864 90.7996
lradius 109.305 0 0
lwrist 28.5812 0 0
lhand -38.0612 7.83111 0
lfingers 7.12502 0 0
lthumb -11.0983 37.5175 0
rclavicle -1.387e-14 1.35558e-14 0
rhumerus -44.9278 9.42509 -84.3803
rradius 87.3463 0 0
rwrist -3.06564 0 0
rhand -44.0559 37.2558 0
rfingers 7.12502 0 0
rthumb -16.875 7.96905 0
114
root 0.703409 17.5633 24.5439 1.01983 -2.06787 0.550248
lfemur 1.8389 7.99743 -17.1792
ltibia 74.4569 0 0
lfoot 15.3088 -4.07647 0
ltoes -14.911 0 0
rfemur -27.0035 0.216476 25.0066
rtibia 61.0584 0 0
rfoot -3.46857 -6.99624 0
rtoes 8.26265 0 0
lowerback 17.7217 -2.34173 -0.110613
upperback 1.49426 -3.0588 0.409888
thorax -8.19388 -1.45978 1.22184
lowerneck -6.32975 2.2706 -0.4863
upperneck -8.41285 2.92027 -2.19101
head -1.50668 1.49163 -0.583715
lclavicle -1.4553e-14 1.30557e-14 0
lhumerus -34.3415 -16.9805 91.0989
lradius 108.971 0 0
lwrist 28.5373 0 0
lhand -38.047 7.89095 0
lfingers 7.12502 0 0
lthumb -11.0846 37.5781 0
rclavicle -1.4553e-14 1.30557e-14 0
rhumerus -44.1636 9.71166 -84.4551
rradius 87.768 0 0
rwrist -3.06976 0 0
rhand -44.0445 37.3607 0
rfingers 7.12502 0 0
rthumb -16.864 8.07303 0
115
root 0.708458 17.5484 25.0916 0.933616 -2.48671 0.347716
lfemur 1.49211 8.45755 -16.6995
ltibia 76.8606 0 0
lfoot 16.234 -3.95185 0
ltoes -14.0741 0 0
rfemur -26.2458 0.666477 25.3785
rtibia 59.0386 0 0
rfoot -4.23406 -6.99472 0
rtoes 8.09779 0 0
lowerback 17.7529 -2.27493 0.184772
upperback 1.514 -2.90301 0.531176
thorax -8.20495 -1.39315 1.15017
lowerneck -6.36238 2.34343 -0.422792
upperneck -8.43202 3.00385 -2.39239
head -1.50363 1.53397 -0.656264
lclavicle -1.52359e-14 1.25555e-14 0
lhumerus -35.5133 -17.097 91.3983
lradius 108.637 0 0
lwrist 28.4934 0 0
lhand -38.0328 7.95079 0
lfingers 7.12502 0 0
lthumb -11.0708 37.6387 0
rclavicle -1.52359e-14 1.25555e-14 0
rhumerus -43.3993 9.99823 -84.5299
rradius 88.1898 0 0
rwrist -3.07389 0 0
rhand -44.0331 37.4656 0
rfingers 7.12502 0 0
rthumb -16.853 8.17701 0
116
root 0.713507 17.5336 25.6392 0.847399 -2.90555 0.145185
lfemur 1.14532 8.91766 -16.2198
ltibia 79.2642 0 0
lfoot 17.1592 -3.82724 0
ltoes -13.2373 0 0
rfemur -25.488 1.11648 25.7504
rtibia 57.0188 0 0
rfoot -4.99956 -6.99319 0
rtoes 7.93293 0 0
lowerback 17.7842 -2.20813 0.480156
upperback 1.53374 -2.74722 0.652463
thorax -8.21603 -1.32653 1.07851
lowerneck -6.395 2.41627 -0.359285
upperneck -8.45119 3.08744 -2.59376
head -1.50058 1.57631 -0.728814
lclavicle -1.59188e-14 1.20553e-14 0
lhumerus -36.6851 -17.2135 91.6976
lradius 108.303 0 0
lwrist 28.4495 0 0
lhand -38.0185 8.01063 0
lfingers 7.12502 0 0
lthumb -11.0571 37.6993 0
rclavicle -1.59188e-14 1.20553e-14 0
rhumerus -42.635 10.2848 -84.6046
rradius 88.6116 0 0
rwrist -3.07802 0 0
rhand -44.0217 37.5705 0
rfingers 7.12502 0 0
rthumb -16.842 8.28099 0
117
root 0.718556 17.5187 26.1869 0.761183 -3.32439 -0.0573471
lfemur 0.798532 9.37778 -15.7401
ltibia 81.6679 0 0
lfoot 18.0844 -3.70262 0
ltoes -12.4004 0 0
rfemur -24.7303 1.56648 26.1223
rtibia 54.9989 0 0
rfoot -5.76505 -6.99166 0
rtoes 7.76807 0 0
lowerback 17.8154 -2.14133 0.775541
upperback 1.55348 -2.59143 0.773751
thorax -8.2271 -1.2599 1.00684
lowerneck -6.42763 2.4891 -0.295777
upperneck -8.47036 3.17102 -2.79513
head -1.49753 1.61865 -0.801363
lclavicle -1.66017e-14 1.15552e-14 0
lhumerus -37.8569 -17.33 91.997
lradius 107.968 0 0
lwrist 28.4057 0 0
lhand -38.0043 8.07047 0
lfingers 7.12502 0 0
lthumb -11.0434 37.7599 0
rclavicle -1.66017e-14 1.15552e-14 0
rhumerus -41.8707 10.5714 -84.6794
rradius 89.0334 0 0
rwrist -3.08215 0 0
rhand -44.0103 37.6754 0
rfingers 7.12502 0 0
rthumb -16.831 8.38497 0
118
root 0.723605 17.5038 26.7345 0.674967 -3.74323 -0.259879
lfemur 0.451744 9.83789 -15.2605
ltibia 84.0715 0 0
lfoot 19.0096 -3.578 0
ltoes -11.5636 0 0
rfemur -23.9726 2.01648 26.4941
rtibia 52.9791 0 0
rfoot -6.53055 -6.99014 0
rtoes 7.60321 0 0
lowerback 17.8466 -2.07454 1.07093
upperback 1.57322 -2.43564 0.895038
thorax -8.23818 -1.19328 0.93517
lowerneck -6.46025 2.56194 -0.23227
upperneck -8.48953 3.25461 -2.99651
head -1.49448 1.66099 -0.873913
lclavicle -1.72846e-14 1.1055e-14 0
lhumerus -39.0287 -17.4466 92.2964
lradius 107.634 0 0
lwrist 28.3618 0 0
lhand -37.99 8.13031 0
lfingers 7.12502 0 0
lthumb -11.0296 37.8204 0
rclavicle -1.72846e-14 1.1055e-14 0
rhumerus -41.1064 10.8579 -84.7541
rradius 89.4552 0 0
rwrist -3.08628 0 0
rhand -43.9988 37.7804 0
rfingers 7.12502 0 0
rthumb -16.8201 8.48895 0
119
root 0.728654 17.489 27.2822 0.58875 -4.16207 -0.46241
lfemur 0.104956 10.298 -14.7808
ltibia 86.4751 0 0
lfoot 19.9348 -3.45338 0
ltoes -10.7268 0 0
rfemur -23.2149 2.46648 26.866
rtibia 50.9593 0 0
rfoot -7.29604 -6.98861 0
rtoes 7.43836 0 0
lowerback 17.8778 -2.00774 1.36631
upperback 1.59296 -2.27985 1.01633
thorax -8.24925 -1.12665 0.863502
lowerneck -6.49288 2.63477 -0.168762
upperneck -8.5087 3.3382 -3.19788
head -1.49143 1.70332 -0.946463
lclavicle -1.79676e-14 1.05548e-14 0
lhumerus -40.2005 -17.5631 92.5957
lradius 107.3 0 0
lwrist 28.3179 0 0
lhand -37.9758 8.19015 0
lfingers 7.12502 0 0
lthumb -11.0159 37.881 0
rclavicle -1.79676e-14 1.05548e-14 0
rhumerus -40.3421 11.1445 -84.8289
rradius 89.8769 0 0
rwrist -3.09041 0 0
rhand -43.9874 37.8853 0
rfingers 7.12502 0 0
rthumb -16.8091 8.59293 0
120
root 0.733703 17.4741 27.8299 0.502534 -4.58091 -0.664942
lfemur -0.241831 10.7581 -14.3011
ltibia 88.8788 0 0
lfoot 20.86 -3.32877 0
ltoes -9.88992 0 0
rfemur -22.4571 2.91648 27.2379
rtibia 48.9394 0 0
rfoot -8.06153 -6.98708 0
rtoes 7.2735 0 0
lowerback 17.9091 -1.94094 1.6617
upperback 1.6127 -2.12407 1.13761
thorax -8.26032 -1.06002 0.791834
lowerneck -6.5255 2.70761 -0.105255
upperneck -8.52786 3.42178 -3.39925
head -1.48838 1.74566 -1.01901
lclavicle -1.86505e-14 1.00547e-14 0
lhumerus -41.3723 -17.6796 92.8951
lradius 106.965 0 0
lwrist 28.2741 0 0
lhand -37.9616 8.25 0
lfingers 7.12502 0 0
lthumb -11.0022 37.9416 0
rclavicle -1.86505e-14 1.00547e-14 0
rhumerus -39.5778 11.4311 -84.9037
rradius 90.2987 0 0
rwrist -3.09454 0 0
rhand -43.976 37.9902 0
rfingers 7.12502 0 0
rthumb -16.7981 8.69691 0
121
root 0.738752 17.4592 28.3775 0.416317 -4.99975 -0.867474
lfemur -0.588619 11.2182 -13.8214
ltibia 91.2824 0 0
lfoot 21.7853 -3.20415 0
ltoes -9.05308 0 0
rfemur -21.6994 3.36648 27.6098
rtibia 46.9196 0 0
rfoot -8.82703 -6.98556 0
rtoes 7.10864 0 0
lowerback 17.9403 -1.87414 1.95708
upperback 1.63244 -1.96828 1.2589
thorax -8.2714 -0.993399 0.720166
lowerneck -6.55813 2.78044 -0.0417471
upperneck -8.54703 3.50537 -3.60063
head -1.48533 1.788 -1.09156
lclavicle -1.93334e-14 9.55449e-15 0
lhumerus -42.5441 -17.7961 93.1945
lradius 106.631 0 0
lwrist 28.2302 0 0
lhand -37.9473 8.30984 0
lfingers 7.12502 0 0
lthumb -10.9884 38.0022 0
rclavicle -1.93334e-14 9.55449e-15 0
rhumerus -38.8135 11.7176 -84.9784
rradius 90.7205 0 0
rwrist -3.09867 0 0
rhand -43.9646 38.0951 0
rfingers 7.12502 0 0
rthumb -16.7871 8.80089 0
